{"glyphs":{"0":{"ha":833,"x_min":0,"x_max":0,"o":""},"1":{"ha":833,"x_min":0,"x_max":0,"o":""},"2":{"ha":833,"x_min":0,"x_max":0,"o":""},"3":{"ha":833,"x_min":0,"x_max":0,"o":""},"4":{"ha":833,"x_min":0,"x_max":0,"o":""},"5":{"ha":833,"x_min":0,"x_max":0,"o":""},"6":{"ha":833,"x_min":0,"x_max":0,"o":""},"7":{"ha":833,"x_min":0,"x_max":0,"o":""},"8":{"ha":833,"x_min":0,"x_max":0,"o":""},"9":{"ha":833,"x_min":0,"x_max":0,"o":""}," ":{"ha":458,"x_min":0,"x_max":0,"o":""},"A":{"ha":790,"x_min":0,"x_max":0,"o":"m 725 579 b 393 976 839 701 696 976 b 47 579 104 976 -35 676 b 221 524 119 501 203 558 b 90 311 239 490 90 399 b 339 138 90 218 383 189 b 63 181 290 83 142 260 b 93 0 -3 118 10 0 l 260 0 b 396 88 383 0 396 40 b 271 515 396 218 85 329 b 550 429 357 590 550 593 b 533 0 550 296 313 0 l 651 0 b 769 189 731 0 767 83 b 565 524 774 340 546 501 b 725 579 582 549 657 510 z m 272 738 b 393 950 135 738 139 950 b 500 738 635 950 651 738 z "},"B":{"ha":779,"x_min":0,"x_max":0,"o":"m 160 540 b 244 544 186 540 201 544 b 636 229 451 544 758 361 b 211 514 529 122 460 514 b 144 14 -21 514 -12 14 b 242 483 314 14 157 483 b 547 0 333 483 131 0 b 758 158 686 0 758 74 b 360 551 758 388 460 551 b 740 790 460 551 740 560 b 525 972 740 906 651 972 b 211 640 138 972 294 640 b 122 958 122 640 333 958 b 168 610 -39 958 -17 610 b 640 710 360 610 536 813 b 244 568 708 636 597 568 b 164 572 211 568 201 572 b 160 540 131 572 138 540 z "},"C":{"ha":729,"x_min":0,"x_max":0,"o":"m 206 776 b 392 474 331 776 296 572 b 607 969 561 300 843 969 b 407 492 417 969 513 386 b 275 986 339 564 615 986 b 281 -4 -35 986 -121 -4 b 447 378 553 -4 351 378 b 621 4 507 378 392 4 b 343 408 769 4 742 408 b 206 776 14 408 -4 776 z "},"D":{"ha":768,"x_min":0,"x_max":0,"o":"m 208 535 b 131 14 57 588 -85 14 b 203 507 325 14 117 529 b 419 -3 296 478 144 -3 b 361 969 968 -3 779 969 b 217 607 86 969 307 649 b 90 956 149 575 251 997 b 222 575 -60 913 67 526 b 711 415 410 635 767 611 b 208 535 656 210 393 472 z "},"E":{"ha":782,"x_min":0,"x_max":0,"o":"m 613 564 l 531 564 b 143 699 188 564 71 631 b 606 599 247 801 418 599 b 656 957 768 599 800 957 b 567 631 449 957 656 631 b 261 972 481 631 638 972 b 40 778 133 972 40 890 b 418 543 40 550 322 543 b 21 157 322 543 21 379 b 238 0 21 68 99 0 b 535 440 647 0 453 440 b 629 10 619 440 463 10 b 571 472 828 10 796 472 b 147 231 318 472 254 121 b 531 536 21 356 328 536 b 619 532 574 536 588 532 b 613 564 643 532 647 564 z "},"F":{"ha":831,"x_min":0,"x_max":0,"o":"m 269 972 b 501 642 653 972 419 642 b 669 961 583 642 461 961 b 771 711 788 961 857 850 b 146 703 543 343 232 919 b 771 351 53 461 979 638 b 293 482 558 69 539 482 b 293 326 142 482 150 253 b 297 0 485 417 604 0 l 207 0 b 293 507 -82 0 -21 507 b 617 429 449 507 539 343 b 24 789 771 600 24 421 b 269 972 24 890 126 972 z "},"G":{"ha":764,"x_min":0,"x_max":0,"o":"m 231 644 b 514 397 385 644 407 397 b 668 958 706 397 831 958 b 521 431 463 958 594 431 b 360 972 444 431 606 972 b 338 0 -17 972 -182 0 b 600 288 556 0 504 288 b 649 0 660 288 424 0 b 711 100 747 0 758 22 b 660 328 689 136 600 269 b 725 401 678 346 744 383 b 289 225 682 446 526 225 b 231 644 15 225 -61 644 z "},"H":{"ha":818,"x_min":0,"x_max":0,"o":"m 658 618 b 682 972 751 846 843 972 l 542 972 b 503 486 269 972 746 401 l 286 560 b 300 972 125 614 501 972 l 103 972 b 142 678 4 972 8 856 b 79 368 290 479 79 457 b 313 139 79 238 367 193 b 61 193 276 99 156 296 b 115 0 -1 121 13 0 l 232 0 b 379 94 361 0 379 44 b 297 326 379 165 351 246 b 282 526 257 399 197 554 l 521 442 b 558 0 740 363 290 0 l 719 0 b 774 193 796 0 813 96 b 658 618 699 376 578 421 z "},"I":{"ha":454,"x_min":0,"x_max":0,"o":"m 299 0 b 263 457 554 0 393 238 b 228 972 146 650 679 972 b 196 457 -207 972 313 650 b 156 0 61 238 -100 0 z "},"J":{"ha":781,"x_min":0,"x_max":0,"o":"m 424 33 b 343 213 328 51 301 144 b 10 469 490 447 10 804 b 333 249 10 200 383 329 b 72 171 293 176 72 351 b 351 0 72 38 194 0 l 461 0 b 757 671 618 0 757 213 b 465 907 757 919 628 1064 b 424 33 276 718 690 -26 z "},"K":{"ha":778,"x_min":0,"x_max":0,"o":"m 335 538 b 132 0 -83 538 657 0 b 114 569 -106 0 114 461 b 119 972 114 721 -83 967 b 299 622 464 981 47 622 b 528 972 500 622 246 972 l 643 972 b 289 596 903 972 603 596 b 128 793 119 596 178 793 b 146 569 65 793 146 654 b 142 219 146 449 7 219 b 329 564 347 219 -15 564 b 635 0 679 564 913 0 l 486 0 b 335 538 253 0 500 538 z "},"L":{"ha":701,"x_min":0,"x_max":0,"o":"m 354 668 b 231 969 396 872 322 969 b 264 0 -4 969 -132 0 b 428 374 535 0 338 374 b 596 0 517 374 378 0 b 358 401 747 0 740 401 b 60 281 188 401 113 233 b 354 668 10 326 308 413 z "},"M":{"ha":893,"x_min":0,"x_max":0,"o":"m 464 229 b 688 611 464 432 565 715 b 533 189 814 513 533 443 b 692 0 533 76 592 0 l 746 0 b 854 181 849 0 897 100 b 564 161 763 343 606 108 b 788 525 528 217 1003 311 b 825 721 699 611 776 658 b 774 938 865 772 874 835 b 588 907 707 1000 640 974 b 465 586 522 826 465 688 b 450 492 465 539 481 492 b 431 586 417 492 431 533 b 301 915 431 692 369 836 b 125 938 250 975 188 997 b 43 765 50 863 26 810 b 106 525 75 676 214 629 b 328 161 -110 308 368 217 b 40 181 293 108 131 343 b 153 0 -7 100 47 0 l 207 0 b 363 189 306 0 363 76 b 206 611 363 443 81 513 b 429 229 329 715 429 432 b 447 121 429 183 419 121 b 464 229 474 121 464 183 z "},"N":{"ha":813,"x_min":0,"x_max":0,"o":"m 411 918 b 546 775 474 954 576 918 b 775 779 510 622 756 622 b 524 972 788 874 711 972 b 399 336 8 972 844 403 b 179 972 97 296 538 972 b 21 769 89 972 21 882 b 101 533 21 660 83 590 b 139 3 150 376 -122 3 b 188 596 358 3 35 550 b 500 -3 321 631 97 -3 l 558 -3 b 783 107 685 -3 761 32 b 411 918 868 385 286 851 z "},"O":{"ha":768,"x_min":0,"x_max":0,"o":"m 572 532 b 382 979 572 713 1000 979 b 199 532 -232 979 199 694 b 292 0 199 383 -253 0 l 531 0 b 572 532 988 0 572 361 z m 382 272 b 193 424 268 272 149 335 b 382 807 311 668 232 807 b 572 422 536 807 454 671 b 382 272 621 311 500 272 z "},"P":{"ha":772,"x_min":0,"x_max":0,"o":"m 407 425 b 758 672 594 425 758 488 b 429 972 758 817 625 972 l 260 972 b 93 589 -40 972 24 739 b 219 260 138 488 293 260 b 119 -3 -36 260 0 -3 l 182 -3 b 297 104 247 -3 274 51 b 147 589 371 260 147 488 b 507 517 147 785 507 739 b 403 447 507 461 447 447 b 251 447 278 447 251 465 b 407 425 251 425 278 425 z "},"Q":{"ha":778,"x_min":0,"x_max":0,"o":"m 736 521 b 376 972 779 679 729 972 b 64 496 -169 972 64 729 b 282 0 64 290 71 0 b 404 206 547 0 313 163 b 607 0 507 254 351 0 b 757 197 697 0 765 121 b 557 158 742 332 476 282 b 553 46 597 96 610 46 b 542 274 481 46 456 207 b 736 521 600 318 703 397 z m 390 657 b 282 218 929 657 597 218 b 93 494 119 218 93 261 b 390 657 93 619 218 657 z "},"R":{"ha":776,"x_min":0,"x_max":0,"o":"m 163 588 b 474 588 163 813 474 778 b 257 575 474 488 329 575 b 225 551 257 575 225 575 b 257 538 225 538 247 538 b 543 0 826 538 90 -6 b 600 0 615 1 539 0 b 444 515 958 0 596 515 b 744 718 628 515 744 535 b 419 972 744 863 621 972 l 253 972 b 86 588 -46 972 18 736 b 185 286 131 488 257 286 b 108 0 -68 286 8 0 l 171 0 b 290 110 235 0 279 60 b 163 588 339 338 163 415 z "},"S":{"ha":760,"x_min":0,"x_max":0,"o":"m 336 497 b 618 233 565 479 694 318 b 193 483 511 121 444 483 b 135 7 -31 483 -22 7 b 229 457 314 7 157 457 b 525 0 300 457 161 0 b 739 161 664 0 739 72 b 332 524 739 336 560 511 b 108 708 143 538 40 636 b 457 547 211 811 328 547 b 431 743 560 547 519 654 b 417 936 350 825 328 936 b 475 779 457 936 475 882 b 735 779 475 628 735 618 b 461 972 735 856 681 972 b 403 731 282 972 310 825 b 453 578 489 640 515 578 b 175 972 269 578 376 972 b 22 767 85 972 22 878 b 336 497 22 622 99 519 z "},"T":{"ha":740,"x_min":0,"x_max":0,"o":"m 433 0 b 461 458 690 0 596 239 b 429 954 349 653 363 954 b 596 531 542 954 335 531 b 363 976 799 531 811 976 b 128 531 -74 976 -47 531 b 294 950 389 531 182 950 b 264 458 363 950 381 653 b 290 0 128 239 33 0 z "},"U":{"ha":826,"x_min":0,"x_max":0,"o":"m 186 219 b 390 535 186 396 314 401 b 32 844 533 772 32 1175 b 385 571 32 575 429 653 b 21 368 336 490 21 815 b 289 0 21 165 172 0 b 490 115 436 0 429 115 b 690 0 479 115 576 0 b 776 206 796 0 838 143 b 488 165 696 283 510 108 b 803 672 461 229 803 211 b 599 972 803 918 696 972 b 479 408 501 972 479 819 b 186 219 479 -54 186 -54 z "},"V":{"ha":789,"x_min":0,"x_max":0,"o":"m 299 467 b 200 969 299 819 288 969 b 7 721 108 969 7 906 b 299 238 7 467 236 296 b 429 0 365 179 338 0 b 763 503 496 6 763 340 b 417 556 763 754 461 481 b 768 849 364 640 768 582 b 396 533 768 1178 258 771 b 382 232 474 397 446 232 b 299 467 324 232 299 310 z "},"W":{"ha":888,"x_min":0,"x_max":0,"o":"m 447 849 b 431 739 417 849 431 782 b 201 353 431 538 322 249 b 364 778 79 453 364 528 b 208 972 364 890 306 972 l 150 972 b 57 789 53 972 8 871 b 331 808 146 628 296 860 b 89 449 372 750 -54 682 b 49 207 196 274 89 261 b 92 36 1 144 14 96 b 281 57 164 -19 224 -8 b 429 385 351 138 429 281 b 447 482 429 436 417 482 b 464 385 476 482 464 436 b 617 51 464 279 544 131 b 810 43 675 -11 736 -18 b 850 193 868 92 881 136 b 804 449 814 261 700 271 b 563 808 940 682 521 750 b 836 789 601 860 747 628 b 743 972 885 871 844 972 l 689 972 b 529 778 588 972 529 890 b 692 353 529 528 814 453 b 463 739 571 249 463 538 b 447 849 463 782 476 849 z "},"X":{"ha":797,"x_min":0,"x_max":0,"o":"m 563 615 b 672 972 731 706 885 972 l 496 972 b 510 747 367 972 482 813 b 281 636 571 604 429 514 b 308 972 151 743 513 972 l 117 972 b 267 601 -54 972 44 681 b 107 306 475 525 107 479 b 339 139 107 192 413 213 b 61 174 297 97 156 268 b 96 0 -1 108 10 0 l 260 0 b 401 94 388 0 401 46 b 249 354 401 219 263 213 b 475 504 242 458 385 574 b 538 0 589 400 311 0 l 658 0 b 774 125 735 0 774 21 b 544 493 774 236 683 396 b 563 615 489 535 494 579 z "},"Y":{"ha":783,"x_min":0,"x_max":0,"o":"m 586 685 b 663 972 840 685 776 972 l 600 972 b 482 863 536 972 489 919 b 572 542 446 711 522 628 b 519 438 603 478 586 421 b 188 972 58 535 629 975 l 135 972 b 369 464 -117 972 99 599 b 296 36 603 344 576 33 b 196 451 144 36 346 451 b 21 250 82 451 21 394 b 349 0 21 110 149 0 l 519 0 b 686 381 817 0 753 231 b 586 685 639 481 513 685 z "},"Z":{"ha":821,"x_min":0,"x_max":0,"o":"m 192 0 b 550 276 369 0 324 276 b 646 0 689 276 443 56 b 800 147 721 -21 800 24 b 571 306 800 286 650 306 b 292 222 367 306 344 139 b 800 732 154 440 800 160 b 526 972 800 846 689 972 b 250 606 328 972 346 561 b 324 857 175 640 322 749 b 29 860 325 1010 67 1018 b 192 572 1 743 61 572 b 732 550 468 572 768 703 b 314 372 706 440 428 606 b 21 183 251 244 21 467 b 192 0 21 24 128 0 z "},"a":{"ha":833,"x_min":0,"x_max":0,"o":""},"b":{"ha":833,"x_min":0,"x_max":0,"o":""},"c":{"ha":833,"x_min":0,"x_max":0,"o":""},"d":{"ha":833,"x_min":0,"x_max":0,"o":""},"e":{"ha":833,"x_min":0,"x_max":0,"o":""},"f":{"ha":833,"x_min":0,"x_max":0,"o":""},"g":{"ha":833,"x_min":0,"x_max":0,"o":""},"h":{"ha":833,"x_min":0,"x_max":0,"o":""},"i":{"ha":833,"x_min":0,"x_max":0,"o":""},"j":{"ha":833,"x_min":0,"x_max":0,"o":""},"k":{"ha":833,"x_min":0,"x_max":0,"o":""},"l":{"ha":833,"x_min":0,"x_max":0,"o":""},"m":{"ha":833,"x_min":0,"x_max":0,"o":""},"n":{"ha":833,"x_min":0,"x_max":0,"o":""},"o":{"ha":833,"x_min":0,"x_max":0,"o":""},"p":{"ha":833,"x_min":0,"x_max":0,"o":""},"q":{"ha":788,"x_min":0,"x_max":0,"o":"m 729 521 b 383 972 772 679 736 972 b 71 496 -162 972 71 729 b 289 0 71 290 78 0 b 411 206 465 0 332 163 b 614 1 513 261 358 1 b 764 197 704 1 772 121 b 564 158 749 332 483 282 b 560 46 604 96 617 46 b 549 274 488 46 463 207 b 729 521 607 318 696 397 z m 397 657 b 289 218 936 657 604 218 b 100 494 126 218 100 261 b 397 657 100 619 225 657 z "},"r":{"ha":833,"x_min":0,"x_max":0,"o":""},"s":{"ha":833,"x_min":0,"x_max":0,"o":""},"t":{"ha":833,"x_min":0,"x_max":0,"o":""},"u":{"ha":833,"x_min":0,"x_max":0,"o":""},"v":{"ha":833,"x_min":0,"x_max":0,"o":""},"w":{"ha":833,"x_min":0,"x_max":0,"o":""},"x":{"ha":833,"x_min":0,"x_max":0,"o":""},"y":{"ha":833,"x_min":0,"x_max":0,"o":""},"z":{"ha":833,"x_min":0,"x_max":0,"o":""},".":{"ha":833,"x_min":0,"x_max":0,"o":""},",":{"ha":833,"x_min":0,"x_max":0,"o":""},"-":{"ha":833,"x_min":0,"x_max":0,"o":""}}}
